<?xml version="1.0" encoding="UTF-8"?>
<svg width="22px" height="22px" viewBox="0 0 22 22" version="1.1" xmlns="http://www.w3.org/2000/svg" xmlns:xlink="http://www.w3.org/1999/xlink">
    <!-- Generator: Sketch 43.2 (39069) - http://www.bohemiancoding.com/sketch -->
    <title>头像</title>
    <desc>Created with Sketch.</desc>
    <defs>
        <circle id="path-1" cx="11" cy="11" r="11"></circle>
    </defs>
    <g id="Page-1" stroke="none" stroke-width="1" fill="none" fill-rule="evenodd">
        <g id="SaaS-运营首页" transform="translate(-1124.000000, -19.000000)">
            <g id="Group-3" transform="translate(1106.000000, 0.000000)">
                <g id="Group-2" transform="translate(18.000000, 19.000000)">
                    <g id="头像">
                        <mask id="mask-2" fill="white">
                            <use xlink:href="#path-1"></use>
                        </mask>
                        <use id="Mask" fill="#C0CCDA" xlink:href="#path-1"></use>
                        <g mask="url(#mask-2)" id="Shape" fill-rule="nonzero" fill="#99A9BF">
                            <g transform="translate(1.000000, 3.000000)">
                                <path d="M10.0043799,11.5624914 C12.7065552,11.5624914 14.8177418,9.19954205 15.1384659,5.81622683 C15.3256603,3.85928108 14.8807868,2.30196336 13.8535109,1.31210748 C12.9671454,0.457188279 11.6718691,0.0235277098 10.0044093,0.0235277098 C8.33697891,0.0235277098 7.04170261,0.457188279 6.15527833,1.31155434 C5.12803181,2.30138111 4.68365816,3.85928108 4.87038213,5.81622683 C5.19210606,9.19954205 7.30396894,11.5624914 10.0043799,11.5624914 Z"></path>
                                <path d="M14.5921439,12.3323438 C14.3665166,12.2784564 14.1341261,12.2506539 13.8809755,12.2506539 C13.6095641,12.2506539 13.3524437,12.3039881 13.1560748,12.3991862 C13.1377259,12.4077162 11.3271208,13.3391431 10.0043799,13.3391431 C8.68163902,13.3391431 6.87100457,12.4077161 6.85274385,12.3991862 C6.6562573,12.3039881 6.39919572,12.2506539 6.12772552,12.2506539 C5.87469247,12.2506539 5.64218437,12.2784564 5.41655713,12.3323438 C3.87909836,12.6985506 0.00876614943,14.2098996 0.00876614943,16.6448734 C0.00876614943,19.0995564 5.17146353,19.9737773 10.0043505,19.9737773 C14.83662,19.9737773 19.9999055,19.0995855 19.9999055,16.6448734 C19.9999349,14.2098996 16.1296614,12.6985506 14.5921439,12.3323438 Z"></path>
                            </g>
                        </g>
                    </g>
                </g>
            </g>
        </g>
    </g>
</svg>