<?xml version="1.0" encoding="UTF-8"?>
<svg width="15px" height="14px" viewBox="0 0 15 14" version="1.1" xmlns="http://www.w3.org/2000/svg" xmlns:xlink="http://www.w3.org/1999/xlink">
    <!-- Generator: Sketch 43.2 (39069) - http://www.bohemiancoding.com/sketch -->
    <title>退出</title>
    <desc>Created with Sketch.</desc>
    <defs></defs>
    <g id="Page-1" stroke="none" stroke-width="1" fill="none" fill-rule="evenodd">
        <g id="SaaS-运营首页" transform="translate(-1370.000000, -24.000000)" fill-rule="nonzero" fill="#8492A6">
            <g id="Group-3-Copy-2" transform="translate(1352.000000, 0.000000)">
                <g id="Group-4" transform="translate(18.000000, 23.000000)">
                    <g id="Group-5" transform="translate(0.000000, 0.000000)">
                        <g id="退出" transform="translate(0.000000, 1.000000)">
                            <path d="M12.7267347,13.2448932 L1.68183673,13.2448932 C1.14795918,13.2448932 0.713265306,12.7925437 0.713265306,12.2364272 L0.713265306,1.7447767 C0.713265306,1.18866019 1.14795918,0.73631068 1.68183673,0.73631068 L12.7267347,0.73631068 L12.7267347,2.20768932 L13.4332653,2.20768932 L13.4332653,0 L1.68183673,0 C0.757959183,0 0.00673469348,0.782291262 0.00673469348,1.7447767 L0.00673469348,12.2364272 C0.00673469348,13.1982913 0.758571428,13.9812039 1.68183673,13.9812039 L13.4332653,13.9812039 L13.4332653,11.4056699 L12.7267347,11.4056699 L12.7267347,13.2448932 Z M14.8469388,6.91945631 L14.8469388,6.6224466 L14.5616327,6.6224466 L11.995102,3.94998058 L11.4955102,4.47005825 L13.562449,6.62182524 L6.72,6.62182524 L6.72,7.35751456 L13.7185714,7.35751456 L11.494898,9.67269903 L11.9944898,10.1927767 L14.7177551,7.35751456 L14.8469388,7.35751456 L14.8469388,7.22330097 L14.9932653,7.07106796 L14.8469388,6.91945631 Z" id="Shape"></path>
                        </g>
                    </g>
                </g>
            </g>
        </g>
    </g>
</svg>