<?xml version="1.0" encoding="UTF-8"?>
<svg width="97px" height="36px" viewBox="0 0 97 36" version="1.1" xmlns="http://www.w3.org/2000/svg" xmlns:xlink="http://www.w3.org/1999/xlink">
    <!-- Generator: Sketch 43.2 (39069) - http://www.bohemiancoding.com/sketch -->
    <title>Group 2</title>
    <desc>Created with Sketch.</desc>
    <defs></defs>
    <g id="Page-1" stroke="none" stroke-width="1" fill="none" fill-rule="evenodd">
        <g id="Desktop-HD-Copy-8" transform="translate(-181.000000, -12.000000)" fill="#20A0FF">
            <g id="Group-2" transform="translate(181.000000, 12.000000)">
                <path d="M42.56,11.72 L42.56,26 L44.46,26 L44.46,19.46 L51.98,19.46 L51.98,26 L53.88,26 L53.88,11.72 L51.98,11.72 L51.98,17.86 L44.46,17.86 L44.46,11.72 L42.56,11.72 Z M62.2342868,18.9 C62.2609536,18.4199976 62.3609526,17.9700021 62.5342868,17.55 C62.707621,17.1299979 62.9576185,16.7666682 63.2842868,16.46 C63.6109551,16.1533318 64.0109511,15.9133342 64.4842868,15.74 C64.9576225,15.5666658 65.5142836,15.48 66.1542868,15.48 C66.6076224,15.48 67.0376181,15.5266662 67.4442868,15.62 C67.8509555,15.7133338 68.2076186,15.8766655 68.5142868,16.11 C68.820955,16.3433345 69.0676192,16.6466648 69.2542868,17.02 C69.4409544,17.3933352 69.5409534,17.8599972 69.5542868,18.42 L69.5542868,24.96 C69.5542868,25.160001 69.5942864,25.3066662 69.6742868,25.4 C69.7542872,25.4933338 69.8609528,25.5566665 69.9942868,25.59 C70.1276208,25.6233335 70.2709527,25.6366667 70.4242868,25.63 C70.5776209,25.6233333 70.7209528,25.6133334 70.8542868,25.6 L70.8542868,26 L70.2542868,26 C69.960952,26 69.7042879,25.9300007 69.4842868,25.79 C69.2642857,25.6499993 69.1542868,25.3866686 69.1542868,25 L69.1542868,23.66 L69.1142868,23.66 C69.0076196,23.993335 68.8376213,24.3133318 68.6042868,24.62 C68.3709523,24.9266682 68.0776219,25.1999988 67.7242868,25.44 C67.3709517,25.6800012 66.9676224,25.8699993 66.5142868,26.01 C66.0609512,26.1500007 65.5676228,26.22 65.0342868,26.22 C63.9942816,26.22 63.1609566,25.9900023 62.5342868,25.53 C61.907617,25.0699977 61.5942868,24.3800046 61.5942868,23.46 C61.5942868,22.8199968 61.6976191,22.3066686 61.9042868,21.92 C62.1109545,21.5333314 62.3809518,21.2300011 62.7142868,21.01 C63.0476218,20.7899989 63.427618,20.6366671 63.8542868,20.55 C64.2809556,20.4633329 64.707618,20.4066668 65.1342868,20.38 C65.840957,20.3399998 66.4476176,20.3033335 66.9542868,20.27 C67.460956,20.2366665 67.8776185,20.1700005 68.2042868,20.07 C68.5309551,19.9699995 68.7709527,19.8166677 68.9242868,19.61 C69.0776209,19.4033323 69.1542868,19.1066686 69.1542868,18.72 C69.1542868,18.4133318 69.1276204,18.093335 69.0742868,17.76 C69.0209532,17.426665 68.8909545,17.1200014 68.6842868,16.84 C68.4776191,16.5599986 68.1742888,16.3300009 67.7742868,16.15 C67.3742848,15.9699991 66.8342902,15.88 66.1542868,15.88 C65.0742814,15.88 64.2342898,16.1433307 63.6342868,16.67 C63.0342838,17.1966693 62.7009538,17.9399952 62.6342868,18.9 L62.2342868,18.9 Z M69.1542868,19.96 L69.1142868,19.96 C68.9809528,20.1466676 68.7742882,20.2899995 68.4942868,20.39 C68.2142854,20.4900005 67.8942886,20.5666664 67.5342868,20.62 C67.174285,20.6733336 66.7842889,20.7066666 66.3642868,20.72 C65.9442847,20.7333334 65.5342888,20.7533332 65.1342868,20.78 C64.7342848,20.8066668 64.3442887,20.8566663 63.9642868,20.93 C63.5842849,21.0033337 63.2476216,21.1366657 62.9542868,21.33 C62.660952,21.5233343 62.427621,21.7899983 62.2542868,22.13 C62.0809526,22.4700017 61.9942868,22.9133306 61.9942868,23.46 C61.9942868,23.7533348 62.0442863,24.0433319 62.1442868,24.33 C62.2442873,24.6166681 62.4142856,24.8699989 62.6542868,25.09 C62.894288,25.3100011 63.2042849,25.4899993 63.5842868,25.63 C63.9642887,25.7700007 64.434284,25.84 64.9942868,25.84 C65.6609568,25.84 66.2542842,25.7266678 66.7742868,25.5 C67.2942894,25.2733322 67.7309517,24.9766685 68.0842868,24.61 C68.4376219,24.2433315 68.7042859,23.8200024 68.8842868,23.34 C69.0642877,22.8599976 69.1542868,22.3666692 69.1542868,21.86 L69.1542868,19.96 Z M77.9885736,26 L77.9885736,20.18 C77.9885736,19.6199972 78.0685728,19.073336 78.2285736,18.54 C78.3885744,18.006664 78.6352386,17.5366687 78.9685736,17.13 C79.3019086,16.7233313 79.7252377,16.4033345 80.2385736,16.17 C80.7519095,15.9366655 81.3619034,15.8399998 82.0685736,15.88 L82.0685736,15.48 C81.4552372,15.4666666 80.9185759,15.5333326 80.4585736,15.68 C79.9985713,15.8266674 79.6019086,16.0266654 79.2685736,16.28 C78.9352386,16.5333346 78.6685746,16.8299983 78.4685736,17.17 C78.2685726,17.5100017 78.1219074,17.8733314 78.0285736,18.26 L77.9885736,18.26 L77.9885736,15.72 L77.5885736,15.72 L77.5885736,26 L77.9885736,26 Z M88.2828604,20.94 C88.2961938,21.6333368 88.3795263,22.2766637 88.5328604,22.87 C88.6861945,23.4633363 88.9228588,23.9799978 89.2428604,24.42 C89.562862,24.8600022 89.9761912,25.2066654 90.4828604,25.46 C90.9895296,25.7133346 91.6095234,25.84 92.3428604,25.84 C93.4228658,25.84 94.3195235,25.5566695 95.0328604,24.99 C95.7461973,24.4233305 96.1895262,23.573339 96.3628604,22.44 L96.7628604,22.44 C96.616193,23.640006 96.1428644,24.5699967 95.3428604,25.23 C94.5428564,25.8900033 93.5561996,26.22 92.3828604,26.22 C91.5828564,26.2333334 90.8995299,26.106668 90.3328604,25.84 C89.7661909,25.573332 89.3028622,25.1966691 88.9428604,24.71 C88.5828586,24.2233309 88.3161946,23.6500033 88.1428604,22.99 C87.9695262,22.3299967 87.8828604,21.6200038 87.8828604,20.86 C87.8828604,20.0066624 88.0095258,19.24667 88.2628604,18.58 C88.516195,17.91333 88.849525,17.3500023 89.2628604,16.89 C89.6761958,16.4299977 90.156191,16.0800012 90.7028604,15.84 C91.2495298,15.5999988 91.8095242,15.48 92.3828604,15.48 C93.1828644,15.48 93.8728575,15.6333318 94.4528604,15.94 C95.0328633,16.2466682 95.5061919,16.6533308 95.8728604,17.16 C96.2395289,17.6666692 96.5061929,18.2466634 96.6728604,18.9 C96.8395279,19.5533366 96.9095272,20.2333298 96.8828604,20.94 L88.2828604,20.94 Z M96.4828604,20.54 C96.4828604,19.9133302 96.3961946,19.3166695 96.2228604,18.75 C96.0495262,18.1833305 95.7928621,17.6866688 95.4528604,17.26 C95.1128587,16.8333312 94.6895296,16.4966679 94.1828604,16.25 C93.6761912,16.0033321 93.0895304,15.88 92.4228604,15.88 C91.8628576,15.88 91.3395295,15.9866656 90.8528604,16.2 C90.3661913,16.4133344 89.9395289,16.7233313 89.5728604,17.13 C89.2061919,17.5366687 88.9095282,18.0266638 88.6828604,18.6 C88.4561926,19.1733362 88.3228606,19.8199964 88.2828604,20.54 L96.4828604,20.54 Z" id="Hare"></path>
                <g id="Group">
                    <path d="M0,35.7416274 L0,0 C0,0 13.4917602,5.48088886 13.4917602,19.308175 C13.4917602,33.135461 13.4917602,31.2996061 13.4917602,31.2996061 L0,35.7416274 Z" id="Path-2"></path>
                    <path d="M18,35.7416274 L18,0 C18,0 31.4917602,5.48088886 31.4917602,19.308175 C31.4917602,33.135461 31.4917602,31.2996061 31.4917602,31.2996061 L18,35.7416274 Z" id="Path-2-Copy" transform="translate(24.745880, 17.870814) scale(-1, 1) translate(-24.745880, -17.870814) "></path>
                    <rect id="Rectangle-2" x="11" y="16" width="9" height="9"></rect>
                </g>
            </g>
        </g>
    </g>
</svg>