<?xml version="1.0" encoding="UTF-8"?>
<svg width="15px" height="18px" viewBox="0 0 15 18" version="1.1" xmlns="http://www.w3.org/2000/svg" xmlns:xlink="http://www.w3.org/1999/xlink">
    <!-- Generator: Sketch 43.2 (39069) - http://www.bohemiancoding.com/sketch -->
    <title>密码</title>
    <desc>Created with Sketch.</desc>
    <defs></defs>
    <g id="Page-1" stroke="none" stroke-width="1" fill="none" fill-rule="evenodd">
        <g id="SaaS-运营首页" transform="translate(-1254.000000, -21.000000)" fill-rule="nonzero" fill="#8492A6">
            <g id="Group-3-Copy" transform="translate(1236.000000, 0.000000)">
                <g id="Group-4" transform="translate(18.000000, 21.000000)">
                    <g id="密码" transform="translate(0.000000, 0.000000)">
                        <path d="M13.2056629,8.28079339 L2.69276007,8.28079339 L2.69276007,6.00376859 C2.69276007,3.24614876 4.75512515,1.00244628 7.29019532,1.00244628 C9.82490089,1.00244628 11.8870837,3.24614876 11.8870837,6.00376859 C11.8870837,6.27768595 12.0910779,6.49963636 12.3428348,6.49963636 C12.5945918,6.49963636 12.798586,6.27768595 12.798586,6.00376859 C12.798586,2.69910744 10.327321,0.0107107435 7.29019532,0.0107107435 C4.25252279,0.0107107435 1.78125778,2.69910744 1.78125778,6.00376859 L1.78125778,8.28079339 L1.33243405,8.28079339 C0.607789728,8.28079339 0.0182300458,8.92244628 0.0182300458,9.71127273 L0.0182300458,16.56 C0.0182300458,17.3482314 0.607789728,17.9890909 1.33243405,17.9890909 L13.2056629,17.9890909 C13.9304895,17.9890909 14.5198669,17.3482314 14.5198669,16.56 L14.5198669,9.71127273 C14.5198669,8.92244628 13.9304895,8.28079339 13.2056629,8.28079339 Z M13.6083646,16.56 C13.6083646,16.8013884 13.4278871,16.9973554 13.2056629,16.9973554 L1.33261635,16.9973554 C1.11057439,16.9973554 0.929914637,16.8013884 0.929914637,16.56 L0.929914637,9.71127273 C0.929914637,9.46928926 1.11057439,9.27252893 1.33261635,9.27252893 L13.2060275,9.27252893 C13.4280694,9.27252893 13.6083646,9.46928926 13.6083646,9.71127273 L13.6083646,16.56 L13.6083646,16.56 Z" id="Shape"></path>
                        <path d="M7.282721,10.8023802 C6.72943911,10.8023802 6.28116229,11.2905124 6.28116229,11.8924959 C6.28116229,12.3155702 6.50302194,12.681719 6.82696986,12.8624132 L6.82696986,14.9569587 C6.82696986,15.2181818 7.03078177,15.4300165 7.282721,15.4300165 C7.53429564,15.4300165 7.73847215,15.2187769 7.73847215,14.9569587 L7.73847215,12.8628099 C8.06205546,12.6819174 8.28427972,12.3155702 8.28427972,11.8924959 C8.28427972,11.2905124 7.83600289,10.8023802 7.282721,10.8023802 Z" id="Shape"></path>
                    </g>
                </g>
            </g>
        </g>
    </g>
</svg>